<svg width="41" height="38" viewBox="0 0 41 38" fill="none" xmlns="http://www.w3.org/2000/svg">
<path d="M0 26.8799C0 24.8348 0.538806 23.1668 1.61642 21.8759C1.9714 21.6842 2.38977 21.5372 2.87152 21.4349C3.35328 21.3199 3.86039 21.2624 4.39286 21.2624C5.33101 21.2624 6.17409 21.4285 6.92208 21.7608C6.92208 22.1315 6.92842 22.4063 6.94109 22.5853C6.95377 23.8762 6.98547 24.9818 7.03618 25.9021C7.08689 26.8096 7.20099 27.8194 7.37848 28.9314C7.56865 30.0434 7.8539 31.2001 8.23423 32.4016C8.52582 32.4783 8.91883 32.5166 9.41327 32.5166L10.0979 32.4975C10.212 32.4847 10.3768 32.4783 10.5923 32.4783L10.8776 32.4975C10.9156 31.4877 10.9346 30.1968 10.9346 28.6246C10.9346 25.5826 10.8712 21.9334 10.7444 17.6771C10.6557 14.699 10.6113 12.2513 10.6113 10.334C10.6113 8.60848 10.6494 7.27918 10.7254 6.34612C9.36889 6.39724 8.25959 6.46115 7.3975 6.53784L7.34045 11.9253C6.57978 12.1171 5.90785 12.2449 5.32468 12.3088C4.75417 12.3727 4.12662 12.3983 3.44202 12.3855C3.12508 12.1298 2.78278 11.6441 2.41512 10.9284C2.06014 10.1998 1.76221 9.37538 1.52134 8.4551C1.28046 7.52203 1.16002 6.64009 1.16002 5.80928C1.16002 4.65893 1.36286 3.7003 1.76855 2.9334C2.18692 2.1665 2.80813 1.61049 3.63219 1.26539C4.06323 1.03532 4.55767 0.862765 5.11549 0.74773C5.68599 0.619913 6.39595 0.504877 7.24536 0.402624C8.15816 0.287588 9.17239 0.230071 10.288 0.230071C11.4671 0.230071 12.6905 0.287588 13.9583 0.402624C15.2387 0.504877 16.4304 0.651867 17.5334 0.843592L18.5413 2.03229C18.4018 6.64649 18.2877 10.0975 18.199 12.3855C18.1483 13.3313 18.0912 14.9674 18.0278 17.2936C17.9011 20.8981 17.787 23.889 17.6855 26.2664C17.5841 28.631 17.4763 30.3374 17.3622 31.3855C17.2481 32.4208 17.0897 33.3027 16.8868 34.0313C16.6967 34.7726 16.3987 35.4181 15.993 35.9677C15.4733 36.6579 14.7696 37.1692 13.8822 37.5015C13.0074 37.8338 12.0186 38 10.9156 38C9.05195 38 7.47356 37.7699 6.18043 37.3098C4.88729 36.8496 3.77798 36.0764 2.8525 34.9899C1.9397 33.9162 1.17904 32.4464 0.570501 30.5802C0.190167 29.3787 0 28.1453 0 26.8799Z" fill="black"/>
<path d="M21.8122 25.5187C21.8122 24.8668 21.9326 24.2085 22.1735 23.5439C22.4143 22.8792 22.7883 22.2529 23.2955 21.665C25.1464 22.483 26.7565 23.1093 28.1257 23.5439C29.5076 23.9785 30.9275 24.1958 32.3854 24.1958C32.6517 24.1958 32.9242 24.1702 33.2032 24.1191C33.4947 24.0679 33.7229 23.9976 33.8878 23.9082C33.9511 23.7676 34.0019 23.5886 34.0399 23.3713C34.0779 23.1413 34.0969 22.9559 34.0969 22.8153C34.0969 22.189 33.799 21.6522 33.2032 21.2048C32.6073 20.7575 31.8213 20.3101 30.8451 19.8628L30.1795 19.5368C28.2778 18.5526 26.7502 17.6707 25.5965 16.891C24.4555 16.0986 23.4856 15.0632 22.6869 13.7851C21.9009 12.4941 21.5079 10.9156 21.5079 9.04945C21.5079 6.31416 22.2622 4.1221 23.7709 2.47326C25.2922 0.82442 27.7073 0 31.0162 0C33.8434 0 36.081 0.172553 37.7291 0.517659C38.4137 0.926673 39.0096 1.35486 39.5167 1.80222C40.0365 2.2368 40.5309 2.76724 41 3.39354C41 4.28826 40.9113 5.25967 40.7338 6.30777C40.569 7.34309 40.3344 8.29532 40.0301 9.16448C39.7386 10.0336 39.4216 10.6599 39.0793 11.0434C38.7877 11.184 38.4644 11.2926 38.1095 11.3693C37.7545 11.4332 37.3171 11.4652 36.7973 11.4652C36.2522 11.4652 35.8084 11.4268 35.4661 11.3502C35.1238 11.2735 34.8069 11.1456 34.5153 10.9667L33.9258 6.97881C33.1905 6.7743 32.4108 6.62731 31.5867 6.53784C30.7627 6.43559 30.2049 6.39085 29.9133 6.40363C29.4442 6.62092 29.1209 6.92768 28.9434 7.32392C28.7786 7.70737 28.6962 8.16751 28.6962 8.70434C28.6962 9.27952 28.8483 9.778 29.1526 10.1998C29.4695 10.6088 29.8499 10.9475 30.2936 11.2159C30.7373 11.4844 31.3078 11.7847 32.0051 12.1171L32.8418 12.5388C34.6548 13.4975 36.081 14.3347 37.1206 15.0505C38.1602 15.7662 39.0286 16.6737 39.7259 17.773C40.4358 18.8594 40.7908 20.1759 40.7908 21.7225C40.7908 23.5247 40.3217 25.0777 39.3836 26.3814C38.4454 27.6724 37.241 28.6054 35.7704 29.1806C34.9717 29.5002 34.0906 29.7302 33.1271 29.8708C32.1636 30.0114 31.0479 30.0817 29.7801 30.0817C28.9181 30.0817 27.9926 29.9731 27.0037 29.7558C26.0148 29.5385 25.0513 29.1551 24.1132 28.6054C23.1877 28.0558 22.446 27.3209 21.8882 26.4006C21.8375 26.1578 21.8122 25.8638 21.8122 25.5187Z" fill="black"/>
</svg>
