<svg width="64" height="59" viewBox="0 0 64 59" fill="none" xmlns="http://www.w3.org/2000/svg">
<path d="M41 5L39 10.0348" stroke="black" stroke-width="3" stroke-linecap="round"/>
<path d="M36 17.8828L36.2589 16.7952" stroke="black" stroke-width="3" stroke-linecap="round"/>
<path d="M19 22L23 25" stroke="black" stroke-width="3" stroke-linecap="round"/>
<path d="M51.3756 20L44 24" stroke="black" stroke-width="3" stroke-linecap="round"/>
<path d="M56.5224 17.2497L59 16" stroke="black" stroke-width="3" stroke-linecap="round"/>
<path d="M49 41L44.6244 38" stroke="black" stroke-width="3" stroke-linecap="round"/>
<path d="M62 50L53 44" stroke="black" stroke-width="3" stroke-linecap="round"/>
<path d="M36 44L39.7643 57.4937" stroke="black" stroke-width="3" stroke-linecap="round"/>
<path d="M15.4611 55.3578L14 57.2463" stroke="black" stroke-width="3" stroke-linecap="round"/>
<path d="M24.069 44L19.9557 49.2097" stroke="black" stroke-width="3" stroke-linecap="round"/>
<path d="M46.6769 30.9862L44.4411 30.9503" stroke="black" stroke-width="3" stroke-linecap="round"/>
<path d="M14.4729 39L13 39.8504" stroke="black" stroke-width="3" stroke-linecap="round"/>
<path d="M7 31H2" stroke="black" stroke-width="3" stroke-linecap="round"/>
<path d="M14 18.5L9 15" stroke="black" stroke-width="3" stroke-linecap="round"/>
<path d="M22.9445 5.49718L22 2" stroke="black" stroke-width="3" stroke-linecap="round"/>
<path d="M28.0601 18.4462L27 15" stroke="black" stroke-width="3" stroke-linecap="round"/>
</svg>
